<?xml version="1.0" encoding="UTF-8" standalone="no"?>
<!-- Created with Inkscape (http://www.inkscape.org/) -->

<svg
   width="3.5in"
   height="1.437in"
   viewBox="0 0 88.900001 36.499801"
   version="1.1"
   id="svg1092"
   inkscape:version="1.1.2 (0a00cf5339, 2022-02-04)"
   sodipodi:docname="Sticker Halibut Fish - Right Facing.svg"
   xmlns:inkscape="http://www.inkscape.org/namespaces/inkscape"
   xmlns:sodipodi="http://sodipodi.sourceforge.net/DTD/sodipodi-0.dtd"
   xmlns="http://www.w3.org/2000/svg"
   xmlns:svg="http://www.w3.org/2000/svg">
  <sodipodi:namedview
     id="namedview1094"
     pagecolor="#ffffff"
     bordercolor="#666666"
     borderopacity="1.0"
     inkscape:pageshadow="2"
     inkscape:pageopacity="0.0"
     inkscape:pagecheckerboard="0"
     inkscape:document-units="in"
     showgrid="false"
     units="in"
     inkscape:zoom="4.3994184"
     inkscape:cx="163.54434"
     inkscape:cy="71.032116"
     inkscape:window-width="2506"
     inkscape:window-height="1376"
     inkscape:window-x="1974"
     inkscape:window-y="1467"
     inkscape:window-maximized="1"
     inkscape:current-layer="layer1" />
  <defs
     id="defs1089" />
  <g
     inkscape:label="Layer 1"
     inkscape:groupmode="layer"
     id="layer1">
    <g
       id="g1008"
       transform="matrix(4.9421031,0,0,4.9421031,-375.58537,-1130.3155)">
      <g
         aria-label="&gt;"
         style="font-style:normal;font-variant:normal;font-weight:normal;font-stretch:normal;font-size:16.9333px;line-height:1.25;font-family:Keraleeyam;-inkscape-font-specification:'Keraleeyam, Normal';font-variant-ligatures:normal;font-variant-caps:normal;font-variant-numeric:normal;font-feature-settings:normal;text-align:start;letter-spacing:0px;word-spacing:0px;writing-mode:lr-tb;text-anchor:start;fill:#000000;fill-opacity:1;stroke:none;stroke-width:0.264583"
         id="text817-7-0-7">
        <path
           d="m 93.862226,233.35128 -4.555794,2.69544 v -1.67845 l 3.100585,-1.9513 -3.100585,-1.99264 v -1.65365 l 4.555794,2.67891 z"
           style="font-style:normal;font-variant:normal;font-weight:normal;font-stretch:normal;font-size:16.9333px;font-family:Keraleeyam;-inkscape-font-specification:'Keraleeyam, Normal';font-variant-ligatures:normal;font-variant-caps:normal;font-variant-numeric:normal;font-feature-settings:normal;text-align:start;writing-mode:lr-tb;text-anchor:start;stroke-width:0.264583"
           id="path937" />
      </g>
      <g
         aria-label="&gt;&lt;"
         style="font-style:normal;font-variant:normal;font-weight:normal;font-stretch:normal;font-size:16.9333px;line-height:1.25;font-family:Keraleeyam;-inkscape-font-specification:'Keraleeyam, Normal';font-variant-ligatures:normal;font-variant-caps:normal;font-variant-numeric:normal;font-feature-settings:normal;text-align:start;letter-spacing:0px;word-spacing:0px;writing-mode:lr-tb;text-anchor:start;fill:#000000;fill-opacity:1;stroke:none;stroke-width:0.264583"
         id="text817-7-3-0-1">
        <path
           d="m 80.634481,233.35128 -4.555795,2.69544 v -1.67845 l 3.100586,-1.9513 -3.100586,-1.99264 v -1.65365 l 4.555795,2.67891 z"
           style="font-style:normal;font-variant:normal;font-weight:normal;font-stretch:normal;font-size:16.9333px;font-family:Keraleeyam;-inkscape-font-specification:'Keraleeyam, Normal';font-variant-ligatures:normal;font-variant-caps:normal;font-variant-numeric:normal;font-feature-settings:normal;text-align:start;writing-mode:lr-tb;text-anchor:start;stroke-width:0.264583"
           id="path940" />
        <path
           d="m 85.636759,235.96404 -4.555794,-2.61276 v -1.90169 l 4.555794,-2.59623 v 1.65365 l -3.100586,1.90996 3.100586,1.86862 z"
           style="font-style:normal;font-variant:normal;font-weight:normal;font-stretch:normal;font-size:16.9333px;font-family:Keraleeyam;-inkscape-font-specification:'Keraleeyam, Normal';font-variant-ligatures:normal;font-variant-caps:normal;font-variant-numeric:normal;font-feature-settings:normal;text-align:start;writing-mode:lr-tb;text-anchor:start;stroke-width:0.264583"
           id="path942" />
      </g>
      <g
         aria-label="8"
         style="font-style:normal;font-variant:normal;font-weight:normal;font-stretch:semi-condensed;font-size:16.9333px;line-height:1.25;font-family:'Nimbus Sans Narrow';-inkscape-font-specification:'Nimbus Sans Narrow, Semi-Condensed';font-variant-ligatures:normal;font-variant-caps:normal;font-variant-numeric:normal;font-feature-settings:normal;text-align:start;letter-spacing:0px;word-spacing:0px;writing-mode:lr-tb;text-anchor:start;fill:#000000;fill-opacity:1;stroke:none;stroke-width:0.264583"
         id="text817-7-0-7-2-8-9-2-0">
        <path
           d="m 88.906524,229.96785 q 0,0.3556 -0.15875,0.5715 -0.1524,0.20955 -0.42545,0.3556 0.38735,0.20955 0.5588,0.4826 0.1778,0.27305 0.1778,0.6731 0,0.635 -0.4445,1.0414 -0.4445,0.40005 -1.14935,0.40005 -0.7112,0 -1.1557,-0.40005 -0.4445,-0.40005 -0.4445,-1.0414 0,-0.40005 0.17145,-0.6731 0.1778,-0.27305 0.56515,-0.4826 -0.3048,-0.1651 -0.4445,-0.381 -0.1397,-0.2159 -0.1397,-0.53975 0,-0.5334 0.4064,-0.8763 0.41275,-0.34925 1.0414,-0.34925 0.6223,0 1.0287,0.34925 0.41275,0.3429 0.41275,0.86995 z m -0.9525,-0.33655 q -0.18415,-0.1651 -0.4826,-0.1651 -0.29845,0 -0.48895,0.1651 -0.18415,0.15875 -0.18415,0.4191 0,0.26035 0.18415,0.4318 0.1905,0.1651 0.48895,0.1651 0.2921,0 0.47625,-0.1651 0.1905,-0.1651 0.1905,-0.42545 0,-0.26035 -0.18415,-0.42545 z m -0.4953,1.61925 q -0.3175,0 -0.51435,0.2032 -0.1905,0.2032 -0.1905,0.5461 0,0.33655 0.1905,0.5334 0.1905,0.19685 0.51435,0.19685 0.32385,0 0.51435,-0.19685 0.19685,-0.19685 0.19685,-0.5207 0,-0.34925 -0.1905,-0.55245 -0.1905,-0.20955 -0.5207,-0.20955 z"
           style="font-style:normal;font-variant:normal;font-weight:600;font-stretch:normal;font-size:6.35px;font-family:FreeSans;-inkscape-font-specification:'FreeSans, Semi-Bold';font-variant-ligatures:normal;font-variant-caps:normal;font-variant-numeric:normal;font-feature-settings:normal;text-align:start;writing-mode:lr-tb;text-anchor:start;stroke-width:0.264583"
           id="path945" />
      </g>
    </g>
  </g>
</svg>
